<mxfile host="Electron" agent="Mozilla/5.0 (Macintosh; Intel Mac OS X 10_15_7) AppleWebKit/537.36 (KHTML, like Gecko) draw.io/24.6.4 Chrome/124.0.6367.207 Electron/30.0.6 Safari/537.36" modified="2024-12-03T17:53:09.434Z" version="24.6.4" etag="Sol-l7OuQPSIAu7dwFeh" type="device" pages="2">
  <diagram name="Ландшафт" id="AiTgGjgooif9tiNj5I28">
    <mxGraphModel dx="1781" dy="608" grid="1" gridSize="10" guides="1" tooltips="1" connect="1" arrows="1" fold="1" page="1" pageScale="1" pageWidth="827" pageHeight="1169" math="0" shadow="0">
      <root>
        <mxCell id="0" />
        <mxCell id="1" parent="0" />
        <mxCell id="4A16vvU8Vcy4Ds0KsBeR-1" value="Продажи через кол-центр" style="rounded=0;whiteSpace=wrap;html=1;fillColor=#f5f5f5;fontColor=#333333;strokeColor=#666666;" parent="1" vertex="1">
          <mxGeometry x="330" y="40" width="120" height="60" as="geometry" />
        </mxCell>
        <mxCell id="4A16vvU8Vcy4Ds0KsBeR-2" value="Digital-оповещения клиентов" style="rounded=0;whiteSpace=wrap;html=1;fillColor=#f5f5f5;fontColor=#333333;strokeColor=#666666;" parent="1" vertex="1">
          <mxGeometry x="200" y="40" width="120" height="60" as="geometry" />
        </mxCell>
        <mxCell id="4A16vvU8Vcy4Ds0KsBeR-3" value="Продажи через сеть отделений" style="rounded=0;whiteSpace=wrap;html=1;fillColor=#f5f5f5;fontColor=#333333;strokeColor=#666666;" parent="1" vertex="1">
          <mxGeometry x="70" y="40" width="120" height="60" as="geometry" />
        </mxCell>
        <mxCell id="4A16vvU8Vcy4Ds0KsBeR-4" value="Управление договорами" style="rounded=0;whiteSpace=wrap;html=1;fillColor=#f5f5f5;fontColor=#333333;strokeColor=#666666;" parent="1" vertex="1">
          <mxGeometry x="720" y="40" width="120" height="60" as="geometry" />
        </mxCell>
        <mxCell id="4A16vvU8Vcy4Ds0KsBeR-5" value="Обслуживание кредитных процессов" style="rounded=0;whiteSpace=wrap;html=1;fillColor=#f5f5f5;fontColor=#333333;strokeColor=#666666;" parent="1" vertex="1">
          <mxGeometry x="590" y="40" width="120" height="60" as="geometry" />
        </mxCell>
        <mxCell id="4A16vvU8Vcy4Ds0KsBeR-6" value="Обслуживание депозитных процессов" style="rounded=0;whiteSpace=wrap;html=1;fillColor=#f5f5f5;fontColor=#333333;strokeColor=#666666;" parent="1" vertex="1">
          <mxGeometry x="460" y="40" width="120" height="60" as="geometry" />
        </mxCell>
        <mxCell id="4A16vvU8Vcy4Ds0KsBeR-7" value="Управление обслуживанием в сети отделений (фронт-офис)" style="rounded=0;whiteSpace=wrap;html=1;fillColor=#f5f5f5;fontColor=#333333;strokeColor=#666666;" parent="1" vertex="1">
          <mxGeometry x="-90" y="110" width="150" height="60" as="geometry" />
        </mxCell>
        <mxCell id="4A16vvU8Vcy4Ds0KsBeR-10" value="Кол-центр" style="rounded=0;whiteSpace=wrap;html=1;fillColor=#f5f5f5;fontColor=#333333;strokeColor=#666666;" parent="1" vertex="1">
          <mxGeometry x="-90" y="330" width="150" height="60" as="geometry" />
        </mxCell>
        <mxCell id="4A16vvU8Vcy4Ds0KsBeR-11" value="Управление обслуживанием кредитных продуктов (бэк-офис)" style="rounded=0;whiteSpace=wrap;html=1;fillColor=#f5f5f5;fontColor=#333333;strokeColor=#666666;" parent="1" vertex="1">
          <mxGeometry x="-90" y="255" width="150" height="60" as="geometry" />
        </mxCell>
        <mxCell id="4A16vvU8Vcy4Ds0KsBeR-12" value="Управление обслуживанием депозитных продуктов (бэк-офис)" style="rounded=0;whiteSpace=wrap;html=1;fillColor=#f5f5f5;fontColor=#333333;strokeColor=#666666;" parent="1" vertex="1">
          <mxGeometry x="-90" y="185" width="150" height="60" as="geometry" />
        </mxCell>
        <mxCell id="u710TmriDDb738VD2jTA-1" value="АБС" style="rounded=1;whiteSpace=wrap;html=1;fillColor=#fff2cc;strokeColor=#d6b656;" parent="1" vertex="1">
          <mxGeometry x="100" y="120" width="720" height="260" as="geometry" />
        </mxCell>
        <mxCell id="3sPrvEs-SqWx4CrejFXe-1" value="СМС-шлюз" style="rounded=1;whiteSpace=wrap;html=1;fillColor=#dae8fc;strokeColor=#6c8ebf;" parent="1" vertex="1">
          <mxGeometry x="130" y="110" width="370" height="30" as="geometry" />
        </mxCell>
        <mxCell id="wInpmn4WWoqVGxjmzsgN-1" value="EXCEL" style="rounded=1;whiteSpace=wrap;html=1;fillColor=#dae8fc;strokeColor=#6c8ebf;" parent="1" vertex="1">
          <mxGeometry x="500" y="195" width="140" height="105" as="geometry" />
        </mxCell>
        <mxCell id="wInpmn4WWoqVGxjmzsgN-2" value="Система кол-центра" style="rounded=1;whiteSpace=wrap;html=1;fillColor=#dae8fc;strokeColor=#6c8ebf;" parent="1" vertex="1">
          <mxGeometry x="400" y="330" width="120" height="60" as="geometry" />
        </mxCell>
        <mxCell id="kg07iihOn26oi-FNHj5u-1" value="E-MAIL" style="rounded=1;whiteSpace=wrap;html=1;fillColor=#dae8fc;strokeColor=#6c8ebf;" parent="1" vertex="1">
          <mxGeometry x="130" y="150" width="350" height="160" as="geometry" />
        </mxCell>
        <mxCell id="uyDJ69AuwMlC3CECes2G-1" value="АБС" style="text;html=1;align=center;verticalAlign=middle;whiteSpace=wrap;rounded=0;fontSize=20;" vertex="1" parent="1">
          <mxGeometry x="680" y="225" width="60" height="30" as="geometry" />
        </mxCell>
      </root>
    </mxGraphModel>
  </diagram>
  <diagram id="hrFo6idqH6cNxaKtYPjL" name="Интеграция">
    <mxGraphModel grid="1" page="1" gridSize="10" guides="1" tooltips="1" connect="1" arrows="1" fold="1" pageScale="1" pageWidth="827" pageHeight="1169" math="0" shadow="0">
      <root>
        <mxCell id="0" />
        <mxCell id="1" parent="0" />
        <mxCell id="LLLEc-gwzEeFxHP9RX0q-1" value="Система кол-центра" style="rounded=1;whiteSpace=wrap;html=1;fillColor=#7EA6E0;strokeColor=#6c8ebf;" parent="1" vertex="1">
          <mxGeometry x="500" y="260" width="160" height="60" as="geometry" />
        </mxCell>
        <mxCell id="bAKAbkZsD3NydZc1Tk52-21" style="edgeStyle=orthogonalEdgeStyle;rounded=0;orthogonalLoop=1;jettySize=auto;html=1;exitX=0.5;exitY=0;exitDx=0;exitDy=0;entryX=0.5;entryY=1;entryDx=0;entryDy=0;" edge="1" parent="1" source="LLLEc-gwzEeFxHP9RX0q-3" target="bAKAbkZsD3NydZc1Tk52-20">
          <mxGeometry relative="1" as="geometry" />
        </mxCell>
        <mxCell id="bAKAbkZsD3NydZc1Tk52-22" value="результат обработки обращения" style="edgeLabel;html=1;align=center;verticalAlign=middle;resizable=0;points=[];" vertex="1" connectable="0" parent="bAKAbkZsD3NydZc1Tk52-21">
          <mxGeometry x="0.04" y="-1" relative="1" as="geometry">
            <mxPoint as="offset" />
          </mxGeometry>
        </mxCell>
        <mxCell id="LLLEc-gwzEeFxHP9RX0q-3" value="АБС (автоматизированная банковская система)" style="rounded=1;whiteSpace=wrap;html=1;fillColor=#7EA6E0;strokeColor=#6c8ebf;" parent="1" vertex="1">
          <mxGeometry x="500" y="190" width="160" height="60" as="geometry" />
        </mxCell>
        <mxCell id="LLLEc-gwzEeFxHP9RX0q-4" value="Excel (документ со ставками)" style="rounded=1;whiteSpace=wrap;html=1;fillColor=#7EA6E0;strokeColor=#6c8ebf;" parent="1" vertex="1">
          <mxGeometry x="500" y="330" width="160" height="60" as="geometry" />
        </mxCell>
        <mxCell id="LLLEc-gwzEeFxHP9RX0q-7" value="Клиенты (внешнее взаимодействие)" style="shape=umlActor;verticalLabelPosition=bottom;verticalAlign=top;html=1;outlineConnect=0;" parent="1" vertex="1">
          <mxGeometry x="110" y="100" width="50" height="70" as="geometry" />
        </mxCell>
        <mxCell id="LLLEc-gwzEeFxHP9RX0q-8" value="Сотрудники фронт-офиса" style="shape=umlActor;verticalLabelPosition=bottom;verticalAlign=top;html=1;outlineConnect=0;strokeColor=#CC0000;fillColor=#CC0000;" parent="1" vertex="1">
          <mxGeometry x="110" y="255" width="50" height="70" as="geometry" />
        </mxCell>
        <mxCell id="LLLEc-gwzEeFxHP9RX0q-9" value="Сотрудники бэк-офиса" style="shape=umlActor;verticalLabelPosition=bottom;verticalAlign=top;html=1;outlineConnect=0;fillColor=#dae8fc;strokeColor=#6c8ebf;" parent="1" vertex="1">
          <mxGeometry x="110" y="385" width="50" height="70" as="geometry" />
        </mxCell>
        <mxCell id="LLLEc-gwzEeFxHP9RX0q-10" value="Менеджер депозитов" style="shape=umlActor;verticalLabelPosition=bottom;verticalAlign=top;html=1;outlineConnect=0;fillColor=#FFCE9F;strokeColor=#FFCE9F;" parent="1" vertex="1">
          <mxGeometry x="827" y="280" width="50" height="70" as="geometry" />
        </mxCell>
        <mxCell id="bAKAbkZsD3NydZc1Tk52-3" value="" style="endArrow=classic;html=1;rounded=0;" edge="1" parent="1">
          <mxGeometry width="50" height="50" relative="1" as="geometry">
            <mxPoint x="140" y="200" as="sourcePoint" />
            <mxPoint x="140" y="240" as="targetPoint" />
          </mxGeometry>
        </mxCell>
        <mxCell id="bAKAbkZsD3NydZc1Tk52-7" value="посещает офис" style="edgeLabel;html=1;align=center;verticalAlign=middle;resizable=0;points=[];" vertex="1" connectable="0" parent="bAKAbkZsD3NydZc1Tk52-3">
          <mxGeometry x="-0.1" y="-1" relative="1" as="geometry">
            <mxPoint as="offset" />
          </mxGeometry>
        </mxCell>
        <mxCell id="bAKAbkZsD3NydZc1Tk52-4" value="" style="endArrow=classic;html=1;rounded=0;strokeColor=#CC0000;" edge="1" parent="1">
          <mxGeometry width="50" height="50" relative="1" as="geometry">
            <mxPoint x="200" y="290" as="sourcePoint" />
            <mxPoint x="490" y="420" as="targetPoint" />
          </mxGeometry>
        </mxCell>
        <mxCell id="bAKAbkZsD3NydZc1Tk52-8" value="коммуникация с бэк-офисом" style="edgeLabel;html=1;align=center;verticalAlign=middle;resizable=0;points=[];" vertex="1" connectable="0" parent="bAKAbkZsD3NydZc1Tk52-4">
          <mxGeometry x="-0.0364" y="1" relative="1" as="geometry">
            <mxPoint as="offset" />
          </mxGeometry>
        </mxCell>
        <mxCell id="bAKAbkZsD3NydZc1Tk52-5" value="E-mail" style="rounded=1;whiteSpace=wrap;html=1;fillColor=#7EA6E0;strokeColor=#6c8ebf;" vertex="1" parent="1">
          <mxGeometry x="500" y="400" width="160" height="60" as="geometry" />
        </mxCell>
        <mxCell id="bAKAbkZsD3NydZc1Tk52-6" value="" style="endArrow=classic;html=1;rounded=0;strokeColor=#7EA6E0;" edge="1" parent="1">
          <mxGeometry width="50" height="50" relative="1" as="geometry">
            <mxPoint x="490" y="430" as="sourcePoint" />
            <mxPoint x="190" y="440" as="targetPoint" />
          </mxGeometry>
        </mxCell>
        <mxCell id="bAKAbkZsD3NydZc1Tk52-32" value="получает запросы и excel" style="edgeLabel;html=1;align=center;verticalAlign=middle;resizable=0;points=[];" vertex="1" connectable="0" parent="bAKAbkZsD3NydZc1Tk52-6">
          <mxGeometry x="0.0459" y="-3" relative="1" as="geometry">
            <mxPoint as="offset" />
          </mxGeometry>
        </mxCell>
        <mxCell id="bAKAbkZsD3NydZc1Tk52-11" value="" style="endArrow=classic;html=1;rounded=0;" edge="1" parent="1">
          <mxGeometry width="50" height="50" relative="1" as="geometry">
            <mxPoint x="200" y="140" as="sourcePoint" />
            <mxPoint x="490" y="290" as="targetPoint" />
          </mxGeometry>
        </mxCell>
        <mxCell id="bAKAbkZsD3NydZc1Tk52-12" value="Сообщает об открытии депозита" style="edgeLabel;html=1;align=center;verticalAlign=middle;resizable=0;points=[];" vertex="1" connectable="0" parent="bAKAbkZsD3NydZc1Tk52-11">
          <mxGeometry x="0.03" y="1" relative="1" as="geometry">
            <mxPoint as="offset" />
          </mxGeometry>
        </mxCell>
        <mxCell id="bAKAbkZsD3NydZc1Tk52-13" value="Сотрудник коллцентра" style="shape=umlActor;verticalLabelPosition=bottom;verticalAlign=top;html=1;outlineConnect=0;fillColor=#9AC7BF;strokeColor=#9AC7BF;" vertex="1" parent="1">
          <mxGeometry x="790" y="150" width="50" height="70" as="geometry" />
        </mxCell>
        <mxCell id="bAKAbkZsD3NydZc1Tk52-14" value="" style="endArrow=classic;html=1;rounded=0;strokeColor=#9AC7BF;" edge="1" parent="1">
          <mxGeometry width="50" height="50" relative="1" as="geometry">
            <mxPoint x="780" y="190" as="sourcePoint" />
            <mxPoint x="670" y="220" as="targetPoint" />
          </mxGeometry>
        </mxCell>
        <mxCell id="bAKAbkZsD3NydZc1Tk52-28" value="заносит данные&amp;nbsp;&lt;div&gt;по обращению&lt;/div&gt;" style="edgeLabel;html=1;align=center;verticalAlign=middle;resizable=0;points=[];" vertex="1" connectable="0" parent="bAKAbkZsD3NydZc1Tk52-14">
          <mxGeometry x="-0.0092" y="-2" relative="1" as="geometry">
            <mxPoint as="offset" />
          </mxGeometry>
        </mxCell>
        <mxCell id="bAKAbkZsD3NydZc1Tk52-16" value="" style="endArrow=classic;html=1;rounded=0;strokeColor=#9AC7BF;" edge="1" parent="1">
          <mxGeometry width="50" height="50" relative="1" as="geometry">
            <mxPoint x="670" y="290" as="sourcePoint" />
            <mxPoint x="810" y="250" as="targetPoint" />
          </mxGeometry>
        </mxCell>
        <mxCell id="bAKAbkZsD3NydZc1Tk52-27" value="обработка обращений" style="edgeLabel;html=1;align=center;verticalAlign=middle;resizable=0;points=[];" vertex="1" connectable="0" parent="bAKAbkZsD3NydZc1Tk52-16">
          <mxGeometry x="-0.166" y="1" relative="1" as="geometry">
            <mxPoint as="offset" />
          </mxGeometry>
        </mxCell>
        <mxCell id="bAKAbkZsD3NydZc1Tk52-17" value="" style="endArrow=classic;html=1;rounded=0;strokeColor=#7EA6E0;startArrow=classicThin;startFill=1;" edge="1" parent="1">
          <mxGeometry width="50" height="50" relative="1" as="geometry">
            <mxPoint x="490" y="230" as="sourcePoint" />
            <mxPoint x="200" y="420" as="targetPoint" />
          </mxGeometry>
        </mxCell>
        <mxCell id="bAKAbkZsD3NydZc1Tk52-18" value="обработка заявки" style="edgeLabel;html=1;align=center;verticalAlign=middle;resizable=0;points=[];" vertex="1" connectable="0" parent="bAKAbkZsD3NydZc1Tk52-17">
          <mxGeometry x="-0.1681" y="1" relative="1" as="geometry">
            <mxPoint as="offset" />
          </mxGeometry>
        </mxCell>
        <mxCell id="bAKAbkZsD3NydZc1Tk52-23" value="результат обработки обращения" style="edgeStyle=orthogonalEdgeStyle;rounded=0;orthogonalLoop=1;jettySize=auto;html=1;" edge="1" parent="1" source="bAKAbkZsD3NydZc1Tk52-20">
          <mxGeometry relative="1" as="geometry">
            <mxPoint x="200" y="130" as="targetPoint" />
          </mxGeometry>
        </mxCell>
        <mxCell id="bAKAbkZsD3NydZc1Tk52-20" value="СМС-шлюз" style="rounded=1;whiteSpace=wrap;html=1;fillColor=#7EA6E0;strokeColor=#6c8ebf;" vertex="1" parent="1">
          <mxGeometry x="500" y="80" width="160" height="60" as="geometry" />
        </mxCell>
        <mxCell id="bAKAbkZsD3NydZc1Tk52-24" value="" style="endArrow=classic;html=1;rounded=0;strokeColor=#CC0000;" edge="1" parent="1">
          <mxGeometry width="50" height="50" relative="1" as="geometry">
            <mxPoint x="200" y="280" as="sourcePoint" />
            <mxPoint x="490" y="220" as="targetPoint" />
          </mxGeometry>
        </mxCell>
        <mxCell id="bAKAbkZsD3NydZc1Tk52-25" value="заносит результат обращения" style="edgeLabel;html=1;align=center;verticalAlign=middle;resizable=0;points=[];" vertex="1" connectable="0" parent="bAKAbkZsD3NydZc1Tk52-24">
          <mxGeometry x="-0.0237" y="3" relative="1" as="geometry">
            <mxPoint as="offset" />
          </mxGeometry>
        </mxCell>
        <mxCell id="bAKAbkZsD3NydZc1Tk52-26" value="" style="endArrow=classic;html=1;rounded=0;strokeColor=#FFCE9F;" edge="1" parent="1">
          <mxGeometry width="50" height="50" relative="1" as="geometry">
            <mxPoint x="680" y="340" as="sourcePoint" />
            <mxPoint x="810" y="310" as="targetPoint" />
          </mxGeometry>
        </mxCell>
        <mxCell id="bAKAbkZsD3NydZc1Tk52-29" value="получает на обработку" style="edgeLabel;html=1;align=center;verticalAlign=middle;resizable=0;points=[];" vertex="1" connectable="0" parent="bAKAbkZsD3NydZc1Tk52-26">
          <mxGeometry x="-0.0551" y="2" relative="1" as="geometry">
            <mxPoint as="offset" />
          </mxGeometry>
        </mxCell>
        <mxCell id="bAKAbkZsD3NydZc1Tk52-30" value="" style="endArrow=classic;html=1;rounded=0;strokeColor=#FFCE9F;" edge="1" parent="1">
          <mxGeometry width="50" height="50" relative="1" as="geometry">
            <mxPoint x="860" y="390" as="sourcePoint" />
            <mxPoint x="630" y="470" as="targetPoint" />
            <Array as="points">
              <mxPoint x="850" y="490" />
            </Array>
          </mxGeometry>
        </mxCell>
        <mxCell id="bAKAbkZsD3NydZc1Tk52-31" value="отправляет Excel" style="edgeLabel;html=1;align=center;verticalAlign=middle;resizable=0;points=[];" vertex="1" connectable="0" parent="bAKAbkZsD3NydZc1Tk52-30">
          <mxGeometry x="-0.7009" y="2" relative="1" as="geometry">
            <mxPoint as="offset" />
          </mxGeometry>
        </mxCell>
      </root>
    </mxGraphModel>
  </diagram>
</mxfile>
